# xmcd
#
# Track frame offsets:
#	150
#	11782
#	25850
#	41675
#	57442
#	74392
#	85632
#	96520
#	106285
#	117245
#	128317
#	140112
#	150812
#	163629
#	177462
#	197650
#	215292
#	233160
#	254385
#	273442
#	294360
#	311077
#
# Disc length: 4383 seconds
#
# Revision: 1
# Processed by: cddbd v1.4PL0 Copyright (c) Steve Scherf et al.
# Submitted via: audiograbber 1.81.03
#
DISCID=34111d16
DTITLE=Various Artist - It´s Country Time CD 4
DYEAR=1900
DGENRE=
TTITLE0=Bruce Low - Geisterreiter
TTITLE1=Bruce Low - Das alte Haus von Rocky Docky
TTITLE2=Bruce Low - Es hängt ein Pferdehalfter an der Wand
TTITLE3=Bruce Low - Silberpfeil, der Indianer
TTITLE4=Bruce Low - Tabak und Rum
TTITLE5=Bruce Low - Red River Song
TTITLE6=Peter Hinnen - Auf meiner Ranch bin ich König
TTITLE7=Peter Hinnen - Siebentausend Rinder
TTITLE8=Peter Hinnen - Die Rose von Mexiko
TTITLE9=Peter Hinnen - In Alabama steht ein Haus
TTITLE10=Peter Hinnen - Im Tal der blauen Berge
TTITLE11=Peter Hinnen - Mein Tenneessee-Baby
TTITLE12=Peter Hinnen - Good Night Jenny
TTITLE13=Gunter Gabriel - Hey Boss, ich brauch mehr Geld
TTITLE14=Gunter Gabriel - Er ist ein Kerl (Der 30-Tonner Diesel)
TTITLE15=Gunter Gabriel - Ich bin CB-Funker
TTITLE16=Gunter Gabriel - Ich schlaf nicht gern allein
TTITLE17=Gunter Gabriel - Franky´s Curry Station
TTITLE18=Gunter Gabriel - Intercity Linie Nr. 4
TTITLE19=Gunter Gabriel - Ehrbares Mädchen
TTITLE20=Gunter Gabriel - Tina weine nicht
TTITLE21=Gunter Gabriel - Komm unter meine Decke
EXTD=
EXTT0=
EXTT1=
EXTT2=
EXTT3=
EXTT4=
EXTT5=
EXTT6=
EXTT7=
EXTT8=
EXTT9=
EXTT10=
EXTT11=
EXTT12=
EXTT13=
EXTT14=
EXTT15=
EXTT16=
EXTT17=
EXTT18=
EXTT19=
EXTT20=
EXTT21=
PLAYORDER=
